<?xml version="1.0" encoding="UTF-8"?>
<svg id="Layer_1" data-name="Layer 1" xmlns="http://www.w3.org/2000/svg" viewBox="0 0 278.13 112.17">
  <defs>
    <style>
      .cls-1 {
        fill: #00f0ff;
      }

      .cls-2 {
        fill: #f4f4f4;
      }
    </style>
  </defs>
  <g>
    <path class="cls-2" d="M105.23,46.22c-1.03,0-2.15-.15-3.37-.45-1.22-.3-2.38-.92-3.47-1.87s-1.99-2.37-2.69-4.27-1.05-4.45-1.05-7.63v-15.07c0-2.56.24-4.69.71-6.39.47-1.7,1.1-3.06,1.87-4.08.77-1.02,1.63-1.78,2.56-2.29s1.88-.84,2.81-1c.94-.16,1.81-.24,2.6-.24,2.19,0,3.93.41,5.2,1.22,1.28.81,2.2,1.91,2.75,3.27.56,1.37.83,2.88.83,4.52,0,.91-.07,1.76-.21,2.53-.14.77-.3,1.62-.49,2.55h-4.98v-2.04c0-4.67-1.1-7-3.29-7-1.18,0-2.08.51-2.7,1.53-.62,1.02-.93,2.89-.93,5.62v19.17c0,2.64.31,4.44.93,5.4.62.96,1.59,1.44,2.9,1.44.91,0,1.67-.39,2.27-1.16.6-.77.9-2.01.9-3.72v-4.03h5.65v3.93c0,3.4-.76,5.93-2.27,7.57-1.51,1.64-3.69,2.47-6.55,2.47Z"/>
    <path class="cls-2" d="M123.65,30.93l-8.32-27.62h6.5l4.93,20.52h.3l4.93-20.52h6.47l-8.37,27.62v14.92h-6.45v-14.92Z"/>
    <path class="cls-2" d="M142.06,3.31h6.52c1.44,0,2.94.09,4.48.27,1.54.18,2.98.59,4.31,1.21,1.33.62,2.4,1.58,3.22,2.88.82,1.29,1.23,3.05,1.23,5.28v2.07c0,2.26-.54,4.1-1.61,5.52-1.07,1.42-2.26,2.37-3.57,2.85v.2c1.93.76,3.39,1.86,4.38,3.29,1,1.43,1.49,3.4,1.49,5.93v2.17c0,2.31-.37,4.18-1.11,5.62-.74,1.44-1.75,2.54-3.03,3.3-1.28.76-2.74,1.28-4.38,1.56-1.64.27-3.37.41-5.18.41h-6.77V3.31ZM149.63,21.52c1.73,0,3.1-.43,4.13-1.28,1.03-.85,1.54-2.28,1.54-4.27v-1.74c0-1.98-.42-3.5-1.25-4.58-.83-1.08-2.31-1.62-4.43-1.62h-1.12v13.5h1.12ZM150.23,41.14c1.73,0,3.1-.43,4.12-1.28,1.02-.85,1.53-2.28,1.53-4.27v-3.31c0-1.99-.41-3.52-1.23-4.59-.82-1.07-2.3-1.61-4.42-1.61h-1.72v15.07h1.72Z"/>
    <path class="cls-2" d="M167.93,3.31h16.26v5.08h-9.81v12.73h7.69v5.08h-7.69v14.57h9.81v5.08h-16.26V3.31Z"/>
    <path class="cls-2" d="M188.05,3.31h7c.98,0,2.06.06,3.24.17,1.18.12,2.35.38,3.51.78,1.16.41,2.22,1.05,3.19,1.92.96.87,1.74,2.06,2.33,3.56.59,1.5.88,3.41.88,5.71v1.07c0,6.38-1.92,10.48-5.75,12.3l7,17.01h-6.87l-5.85-15.91h-2.22v15.91h-6.45V3.31ZM195.35,25.28c2.36,0,3.98-.55,4.87-1.64s1.33-3.07,1.33-5.93v-3.36c0-2.19-.42-3.8-1.26-4.83-.84-1.03-2.49-1.54-4.94-1.54h-.85v17.31h.85Z"/>
    <path class="cls-2" d="M212.56,37.23c0-.91.05-1.76.16-2.54.11-.78.27-1.61.49-2.49h5.01v1.89c0,2.29.35,4.05,1.05,5.27.7,1.22,1.77,1.83,3.21,1.83,2.49,0,3.74-1.22,3.74-3.66,0-.95-.2-1.94-.61-2.99-.41-1.05-1.2-2.32-2.38-3.83l-6.72-8.44c-1.18-1.53-2.1-3.05-2.75-4.58-.66-1.53-.98-3.23-.98-5.1,0-2.82.88-5.13,2.63-6.94,1.75-1.8,4.18-2.7,7.28-2.7,2.51,0,4.47.45,5.9,1.36,1.43.91,2.44,2.05,3.03,3.42.59,1.38.88,2.79.88,4.23,0,.91-.07,1.76-.21,2.53-.14.77-.3,1.62-.49,2.55h-4.98v-2.04c0-2.24-.36-3.97-1.07-5.18-.71-1.21-1.73-1.82-3.06-1.82-1.21,0-2.13.34-2.75,1.01-.62.67-.93,1.57-.93,2.7,0,.96.2,1.84.6,2.63s.9,1.6,1.52,2.43l7.5,9.51c1.38,1.78,2.43,3.47,3.15,5.07.72,1.6,1.08,3.38,1.08,5.34,0,2.94-.94,5.27-2.81,6.99-1.88,1.72-4.37,2.58-7.5,2.58-2.56,0-4.56-.44-6.01-1.31-1.45-.87-2.47-2-3.06-3.37-.59-1.38-.88-2.82-.88-4.33Z"/>
    <path class="cls-2" d="M237.76,3.31h16.26v5.08h-9.81v12.73h7.69v5.08h-7.69v14.57h9.81v5.08h-16.26V3.31Z"/>
    <path class="cls-2" d="M267.17,46.22c-1.03,0-2.15-.15-3.37-.45-1.22-.3-2.38-.92-3.47-1.87s-1.99-2.37-2.69-4.27-1.05-4.45-1.05-7.63v-15.07c0-2.56.24-4.69.71-6.39.47-1.7,1.1-3.06,1.87-4.08.77-1.02,1.63-1.78,2.56-2.29s1.88-.84,2.81-1c.94-.16,1.81-.24,2.6-.24,2.19,0,3.93.41,5.2,1.22,1.28.81,2.2,1.91,2.75,3.27.56,1.37.83,2.88.83,4.52,0,.91-.07,1.76-.21,2.53-.14.77-.3,1.62-.49,2.55h-4.98v-2.04c0-4.67-1.1-7-3.29-7-1.18,0-2.08.51-2.7,1.53-.62,1.02-.93,2.89-.93,5.62v19.17c0,2.64.31,4.44.93,5.4.62.96,1.59,1.44,2.9,1.44.91,0,1.67-.39,2.27-1.16.6-.77.9-2.01.9-3.72v-4.03h5.65v3.93c0,3.4-.76,5.93-2.27,7.57-1.51,1.64-3.69,2.47-6.55,2.47Z"/>
    <path class="cls-2" d="M104.16,107.45c-.6,0-1.31-.09-2.13-.27-.82-.18-1.66-.54-2.51-1.07-.86-.53-1.65-1.32-2.39-2.37-.74-1.05-1.34-2.42-1.79-4.13-.46-1.71-.69-3.84-.69-6.4v-15.07c0-2.56.24-4.69.72-6.39.48-1.7,1.12-3.06,1.91-4.08.79-1.02,1.66-1.78,2.63-2.29.96-.51,1.93-.84,2.89-1,.96-.16,1.85-.24,2.66-.24,2.31,0,4.14.41,5.49,1.22,1.35.81,2.32,1.91,2.91,3.27.59,1.37.88,2.88.88,4.52,0,.91-.07,1.76-.2,2.53-.13.77-.29,1.62-.47,2.55h-4.98v-2.04c0-4.67-1.27-7-3.81-7-1.36,0-2.35.51-2.96,1.53-.61,1.02-.92,2.89-.92,5.62v19.17c0,2.64.31,4.44.95,5.42.63.97,1.63,1.46,2.99,1.46s2.47-.69,3.11-2.08c.65-1.39.97-3.1.97-5.14v-5.43h-3.31v-4.23h9.49v21.54h-4.18l-.7-4.06c-.6,1.18-1.48,2.22-2.64,3.11-1.16.9-2.47,1.34-3.91,1.34Z"/>
    <path class="cls-2" d="M126.14,64.51h7.27l7.94,42.53h-6.47l-1.17-7.62h-7.87l-1.12,7.62h-6.5l7.92-42.53ZM132.97,94.57l-3.04-21.29h-.27l-3.06,21.29h6.38Z"/>
    <path class="cls-2" d="M145.22,64.51h7.99l4.26,17.21c.45,1.81.8,3.55,1.05,5.22.25,1.67.48,3.22.7,4.67h.2c.23-1.44.47-3,.71-4.67.24-1.67.59-3.41,1.03-5.22l4.21-17.21h7.99v42.53h-5.78v-14.07c0-2.89.04-5.6.11-8.14.08-2.54.17-4.76.27-6.67.11-1.91.2-3.36.29-4.36h-.47l-6.42,27.77h-4.08l-6.47-27.77h-.47c.1,1,.2,2.45.3,4.36.1,1.91.19,4.13.26,6.67.07,2.54.11,5.25.11,8.14v14.07h-5.78v-42.53Z"/>
    <path class="cls-2" d="M180.38,64.51h16.26v5.08h-9.81v12.73h7.69v5.08h-7.69v14.57h9.81v5.08h-16.26v-42.53Z"/>
    <path class="cls-2" d="M198.86,98.43c0-.91.05-1.76.16-2.54.11-.78.27-1.61.49-2.49h5.01v1.89c0,2.29.35,4.05,1.05,5.27.7,1.22,1.77,1.83,3.21,1.83,2.49,0,3.74-1.22,3.74-3.66,0-.95-.2-1.94-.61-2.99-.41-1.05-1.2-2.32-2.38-3.83l-6.72-8.44c-1.18-1.53-2.1-3.05-2.75-4.58-.66-1.53-.98-3.23-.98-5.1,0-2.82.88-5.13,2.63-6.94,1.75-1.8,4.18-2.7,7.28-2.7,2.51,0,4.47.45,5.9,1.36,1.43.91,2.44,2.05,3.03,3.42.59,1.38.88,2.79.88,4.23,0,.91-.07,1.76-.21,2.53-.14.77-.3,1.62-.49,2.55h-4.98v-2.04c0-2.24-.36-3.97-1.07-5.18-.71-1.21-1.73-1.82-3.06-1.82-1.21,0-2.13.34-2.75,1.01-.62.67-.93,1.57-.93,2.7,0,.96.2,1.84.6,2.63s.9,1.6,1.52,2.43l7.5,9.51c1.38,1.78,2.43,3.47,3.15,5.07.72,1.6,1.08,3.38,1.08,5.34,0,2.94-.94,5.27-2.81,6.99-1.88,1.72-4.37,2.58-7.5,2.58-2.56,0-4.56-.44-6.01-1.31-1.45-.87-2.47-2-3.06-3.37-.59-1.38-.88-2.82-.88-4.33Z"/>
  </g>
  <path class="cls-1" d="M70.93,46.56c-2.8-1.62-5.73-3.04-8.74-4.25v-14.08c0-6.82-2.66-13.23-7.48-18.05-4.82-4.82-11.23-7.48-18.05-7.48s-13.23,2.66-18.05,7.48c-4.82,4.82-7.48,11.23-7.48,18.05v14.08c-3.01,1.21-5.94,2.63-8.74,4.25l-1.06.61v1.22c0,12.01,3.18,23.86,9.18,34.27,6.01,10.4,14.68,19.08,25.09,25.09l1.06.61,1.06-.61c10.4-6.01,19.08-14.68,25.09-25.09,6.01-10.4,9.18-22.25,9.18-34.27v-1.22l-1.06-.61ZM51.74,72.72c-.24,2.28-1.18,3.96-2.49,5.1-.83.72-1.8,1.22-2.84,1.51-1.03.29-2.12.37-3.2.26-1.42-.15-2.8-.63-3.97-1.43.46,1.12.96,2.37,1.47,3.69.78,2.04,1.57,4.26,2.27,6.48.1.27-.1.57-.39.57h-11.86c-.31,0-.47-.26-.41-.54.7-2.22,1.49-4.45,2.27-6.49.5-1.32,1-2.57,1.47-3.7-1.16.79-2.54,1.28-3.96,1.42-1.08.11-2.18.03-3.21-.26-1.04-.29-2.02-.8-2.85-1.53-1.3-1.14-2.23-2.82-2.46-5.08-.6-5.83,4.8-12.06,9.72-17.74,1.86-2.15,3.65-4.22,5.01-6.14.17-.27.5-.26.7-.02,1.36,1.93,3.15,4,5.02,6.16,4.92,5.68,10.32,11.91,9.72,17.74ZM54.87,44.19l-2.63-.66c-10.19-2.54-20.97-2.54-31.16,0l-2.63.66v-15.96c0-10.04,8.17-18.21,18.21-18.21s18.21,8.17,18.21,18.21v15.96Z"/>
</svg>