<?xml version="1.0" encoding="UTF-8" standalone="no"?>
<svg
   width="801"
   height="189"
   viewBox="0 0 801 189"
   fill="none"
   version="1.1"
   id="svg108"
   sodipodi:docname="Wordmark Stamp.svg"
   inkscape:version="1.2.2 (b0a8486541, 2022-12-01)"
   xmlns:inkscape="http://www.inkscape.org/namespaces/inkscape"
   xmlns:sodipodi="http://sodipodi.sourceforge.net/DTD/sodipodi-0.dtd"
   xmlns="http://www.w3.org/2000/svg"
   xmlns:svg="http://www.w3.org/2000/svg">
  <defs
     id="defs112" />
  <sodipodi:namedview
     id="namedview110"
     pagecolor="#ffffff"
     bordercolor="#000000"
     borderopacity="0.25"
     inkscape:showpageshadow="2"
     inkscape:pageopacity="0.0"
     inkscape:pagecheckerboard="0"
     inkscape:deskcolor="#d1d1d1"
     showgrid="false"
     inkscape:zoom="1.1772784"
     inkscape:cx="400.5"
     inkscape:cy="94.709968"
     inkscape:window-width="1503"
     inkscape:window-height="933"
     inkscape:window-x="0"
     inkscape:window-y="32"
     inkscape:window-maximized="1"
     inkscape:current-layer="svg108" />
  <path
     fill-rule="evenodd"
     clip-rule="evenodd"
     d="M57.7797 0C55.1897 0 52.7997 1.39 51.5097 3.65L1.59969 90.62C0.289688 92.9 0.289688 95.71 1.59969 97.99L51.5097 184.96C52.8097 187.22 55.1997 188.61 57.7797 188.61H743.46C746.05 188.61 748.44 187.22 749.73 184.96L799.64 97.99C800.95 95.71 800.95 92.9 799.64 90.62L749.73 3.65C748.43 1.39 746.04 0 743.46 0H57.7797ZM642.54 145.45C641.74 145.45 641.08 144.8 641.08 143.99V104.82C641.08 104.52 640.99 104.23 640.82 103.99L600.13 45.46C599.46 44.49 600.15 43.17 601.32 43.17H634.65C635.12 43.17 635.55 43.4 635.83 43.77L656.76 72.67C657.35 73.49 658.57 73.47 659.14 72.63L678.82 43.8C679.09 43.41 679.54 43.17 680.02 43.17H712.92C714.09 43.17 714.78 44.48 714.12 45.44L674.69 103.41C674.52 103.65 674.43 103.93 674.43 104.23V143.99C674.43 144.8 673.77 145.45 672.97 145.45H642.52H642.53H642.54ZM562.6 145.45C561.8 145.45 561.14 144.8 561.14 143.99V110.63C561.14 109.83 560.48 109.17 559.68 109.17H525.88C525.07 109.17 524.42 109.83 524.42 110.63V143.99C524.42 144.8 523.76 145.45 522.96 145.45H493.97C493.17 145.45 492.51 144.8 492.51 143.99V44.63C492.51 43.83 493.17 43.17 493.97 43.17H522.96C523.76 43.17 524.42 43.83 524.42 44.63V78.43C524.42 79.23 525.07 79.89 525.88 79.89H559.68C560.48 79.89 561.14 79.23 561.14 78.43V44.63C561.14 43.83 561.8 43.17 562.6 43.17H591.59C592.39 43.17 593.05 43.83 593.05 44.63V144C593.05 144.81 592.39 145.46 591.59 145.46H562.6V145.45ZM350.35 145.45C349.54 145.45 348.89 144.8 348.89 143.99V44.63C348.89 43.83 349.55 43.17 350.35 43.17H380.07C380.87 43.17 381.53 43.83 381.53 44.63V144C381.53 144.81 380.87 145.46 380.07 145.46H350.35V145.45ZM198.53 145.45C197.73 145.45 197.07 144.8 197.07 143.99V44.63C197.07 43.83 197.73 43.17 198.53 43.17H336.22C337.03 43.17 337.68 43.83 337.68 44.63V144C337.68 144.81 337.03 145.46 336.22 145.46H307.81C307.01 145.46 306.35 144.81 306.35 144V73.77C306.35 72.97 305.7 72.31 304.89 72.31H284.49C283.69 72.31 283.03 72.97 283.03 73.77V144C283.03 144.81 282.38 145.46 281.57 145.46H253.16C252.36 145.46 251.7 144.81 251.7 144V73.77C251.7 72.97 251.05 72.31 250.24 72.31H229.84C229.04 72.31 228.38 72.97 228.38 73.77V144C228.38 144.81 227.73 145.46 226.92 145.46H198.51L198.53 145.45ZM87.6497 143.99C87.6497 144.79 88.3097 145.45 89.1097 145.45H151.86C173.28 145.45 186.97 131.75 186.97 113.4C186.97 95.05 174.59 82.22 153.17 81.35L123.16 80.04C119.52 79.89 117.29 79.17 117.29 75.97C117.29 73.2 119.48 72.32 123.12 72.32H184.32C185.12 72.32 185.78 71.66 185.78 70.86V44.63C185.78 43.83 185.13 43.17 184.32 43.17H122.73C101.31 43.17 86.8897 56.72 86.8897 75.37C86.8897 94.02 99.9997 106.4 120.98 107.13L150.99 108.3C154.2 108.45 156.24 109.11 156.24 112.17C156.24 114.94 154.35 116.32 150.99 116.32H89.1197C88.3197 116.32 87.6597 116.98 87.6597 117.78V144.01L87.6497 143.99ZM422.27 145.39C421.47 145.39 420.81 144.74 420.81 143.93V73.92C420.81 73.12 420.16 72.46 419.35 72.46H392.13C391.33 72.46 390.67 71.81 390.67 71V44.66C390.67 43.86 391.32 43.2 392.13 43.2H482.07C482.87 43.2 483.53 43.85 483.53 44.66V71C483.53 71.8 482.88 72.46 482.07 72.46H455.58C454.78 72.46 454.12 73.11 454.12 73.92V143.93C454.12 144.73 453.47 145.39 452.66 145.39H422.24H422.27Z"
     fill="#FFFCF5"
     id="path106"
     style="fill:#f65f1e;fill-rule:evenodd;fill-opacity:1" />
</svg>
